<svg width="88" height="70" viewBox="0 0 88 70" fill="none" xmlns="http://www.w3.org/2000/svg">
<g filter="url(#filter0_d_124_505)">
<path d="M15.1405 48.0575C15.2292 47.5607 15.1378 47.1265 14.8663 46.7548C14.6003 46.3801 14.1507 46.0977 13.5176 45.9078C13.0984 45.7821 12.734 45.7323 12.4244 45.7584C12.1149 45.7845 11.8637 45.8734 11.671 46.0249C11.4796 46.1721 11.3479 46.3681 11.2762 46.6131C11.212 46.8127 11.2026 47.0026 11.2478 47.1827C11.2974 47.3641 11.3911 47.5397 11.5289 47.7095C11.6722 47.8762 11.8541 48.0402 12.0746 48.2014C12.2951 48.3627 12.5491 48.5222 12.8367 48.6798L13.9173 49.2893C14.5413 49.6335 15.0735 50.0025 15.5138 50.3962C15.9585 50.7913 16.3076 51.2076 16.5611 51.6453C16.8189 52.0842 16.9778 52.5482 17.0376 53.0372C17.0975 53.5262 17.0556 54.0417 16.9119 54.5839C16.674 55.4356 16.2596 56.1035 15.6688 56.5877C15.0779 57.0718 14.3405 57.3574 13.4567 57.4445C12.5773 57.5328 11.5786 57.4093 10.4608 57.0741C9.33855 56.7375 8.40677 56.2749 7.66542 55.6862C6.92407 55.0975 6.41646 54.3885 6.14257 53.5594C5.86869 52.7302 5.86964 51.7861 6.14543 50.7268L9.25011 51.658C9.15715 52.1011 9.17356 52.4986 9.29935 52.8503C9.42514 53.2021 9.6466 53.5064 9.96374 53.7633C10.2852 54.0215 10.684 54.222 11.1599 54.3647C11.5966 54.4957 11.984 54.5476 12.3222 54.5206C12.6647 54.4949 12.9478 54.4013 13.1716 54.2401C13.3953 54.0788 13.5466 53.8625 13.6256 53.5912C13.6911 53.3348 13.672 53.0936 13.5686 52.8675C13.4663 52.637 13.2738 52.408 12.9912 52.1804C12.7141 51.9498 12.3467 51.704 11.8889 51.443L10.5775 50.6929C9.48937 50.0763 8.69312 49.3688 8.18872 48.5705C7.68553 47.7677 7.57635 46.8547 7.86117 45.8315C8.08551 44.9948 8.50862 44.3295 9.13052 43.8356C9.75241 43.3417 10.5089 43.0381 11.3999 42.9246C12.2909 42.8112 13.2451 42.9071 14.2626 43.2122C15.3018 43.5239 16.1548 43.9724 16.8215 44.5578C17.4937 45.14 17.9543 45.8135 18.2034 46.5781C18.4524 47.3427 18.4663 48.1462 18.2452 48.9886L15.1405 48.0575Z" fill="white"/>
<path d="M15.1405 48.0575L14.1626 47.8587L14.0017 48.7597L14.8764 49.022L15.1405 48.0575ZM14.8663 46.7548L14.0635 47.3312L14.0719 47.3427L14.8663 46.7548ZM12.4244 45.7584L12.3219 44.7555L12.3219 44.7555L12.4244 45.7584ZM11.671 46.0249L12.2819 46.8313L12.2904 46.8246L11.671 46.0249ZM11.2762 46.6131L12.2216 46.942L12.2255 46.9298L12.2291 46.9175L11.2762 46.6131ZM11.2478 47.1827L10.2852 47.4118L10.2878 47.4222L10.2906 47.4326L11.2478 47.1827ZM11.5289 47.7095L10.7665 48.339L10.7758 48.3504L10.7855 48.3616L11.5289 47.7095ZM12.0746 48.2014L12.6454 47.3897L12.6454 47.3897L12.0746 48.2014ZM12.8367 48.6798L13.3065 47.8029L13.2956 47.7969L12.8367 48.6798ZM13.9173 49.2893L13.4475 50.1663L13.456 50.171L13.9173 49.2893ZM15.5138 50.3962L14.8648 51.1447L14.8673 51.1469L15.5138 50.3962ZM16.5611 51.6453L15.7067 52.1412L15.7099 52.1467L16.5611 51.6453ZM17.0376 53.0372L16.0516 53.1408L16.0516 53.1408L17.0376 53.0372ZM16.9119 54.5839L17.8685 54.8761L17.8719 54.8633L16.9119 54.5839ZM15.6688 56.5877L15.0344 55.8001L15.0344 55.8001L15.6688 56.5877ZM13.4567 57.4445L13.3405 56.4428L13.3386 56.443L13.4567 57.4445ZM7.66542 55.6862L8.26845 54.899L8.26845 54.899L7.66542 55.6862ZM6.14543 50.7268L6.40946 49.7623L5.43957 49.4714L5.18435 50.4517L6.14543 50.7268ZM9.25011 51.658L10.2222 51.8864L10.4157 50.9638L9.51415 50.6935L9.25011 51.658ZM9.29935 52.8504L8.36596 53.1758L8.36596 53.1758L9.29935 52.8504ZM9.96374 53.7633L9.35296 54.5443L9.35632 54.5469L9.96374 53.7633ZM12.3222 54.5206L12.2285 53.517L12.2238 53.5173L12.3222 54.5206ZM13.1716 54.2401L12.5844 53.4161L12.5844 53.4161L13.1716 54.2401ZM13.6256 53.5912L14.5791 53.8939L14.5837 53.8779L14.5879 53.8618L13.6256 53.5912ZM13.5686 52.8675L12.6636 53.2643L12.6686 53.2752L13.5686 52.8675ZM12.9912 52.1804L12.3699 52.9527L12.3763 52.9581L12.3829 52.9634L12.9912 52.1804ZM11.8889 51.443L11.4138 52.3169L11.4151 52.3176L11.8889 51.443ZM10.5775 50.6929L11.0525 49.819L11.0489 49.817L10.5775 50.6929ZM8.18872 48.5705L7.35305 49.0974L7.35502 49.1005L8.18872 48.5705ZM7.86117 45.8315L8.81793 46.123L8.8204 46.1137L7.86117 45.8315ZM9.13052 43.8356L8.50761 43.0388L8.50761 43.0388L9.13052 43.8356ZM11.3999 42.9246L11.5436 43.9232L11.5436 43.9232L11.3999 42.9246ZM16.8215 44.5578L16.1795 45.3124L16.1847 45.317L16.8215 44.5578ZM18.2034 46.5781L19.1463 46.2805L19.1463 46.2805L18.2034 46.5781ZM18.2452 48.9886L17.9811 49.9531L18.949 50.2434L19.2057 49.2658L18.2452 48.9886ZM16.1183 48.2563C16.2502 47.5176 16.1169 46.7914 15.6607 46.167L14.0719 47.3427C14.1588 47.4616 14.2082 47.6039 14.1626 47.8587L16.1183 48.2563ZM15.669 46.1785C15.2222 45.549 14.5358 45.1695 13.7816 44.9433L13.2535 46.8724C13.7657 47.026 13.9784 47.2111 14.0636 47.3311L15.669 46.1785ZM13.7816 44.9433C13.2871 44.795 12.7928 44.7158 12.3219 44.7555L12.527 46.7614C12.6752 46.7489 12.9097 46.7692 13.2535 46.8724L13.7816 44.9433ZM12.3219 44.7555C11.8728 44.7934 11.4275 44.9298 11.0517 45.2253L12.2904 46.8246C12.3 46.817 12.357 46.7757 12.527 46.7614L12.3219 44.7555ZM11.0603 45.2187C10.6973 45.4976 10.4509 45.8728 10.3232 46.3086L12.2291 46.9175C12.245 46.8635 12.2618 46.8466 12.2818 46.8312L11.0603 45.2187ZM10.3307 46.2842C10.2173 46.6372 10.1872 47.0215 10.2852 47.4118L12.2104 46.9536C12.2117 46.9585 12.2125 46.9635 12.213 46.9681C12.2134 46.9727 12.2133 46.9756 12.2133 46.9764C12.2132 46.9783 12.2134 46.9676 12.2216 46.942L10.3307 46.2842ZM10.2906 47.4326C10.3837 47.7732 10.5527 48.0755 10.7665 48.339L12.2912 47.08C12.2294 47.0038 12.211 46.9549 12.205 46.9328L10.2906 47.4326ZM10.7855 48.3616C10.9909 48.6005 11.2348 48.8164 11.5038 49.0131L12.6454 47.3897C12.4735 47.2639 12.3535 47.1518 12.2723 47.0573L10.7855 48.3616ZM11.5038 49.0131C11.7664 49.2052 12.059 49.388 12.3778 49.5627L13.2956 47.7969C13.0392 47.6564 12.8238 47.5202 12.6454 47.3897L11.5038 49.0131ZM12.367 49.5567L13.4475 50.1662L14.387 48.4125L13.3065 47.8029L12.367 49.5567ZM13.456 50.171C14.0264 50.4855 14.4926 50.8118 14.8648 51.1447L16.1627 49.6478C15.6543 49.1932 15.0562 48.7815 14.3785 48.4077L13.456 50.171ZM14.8673 51.1469C15.2441 51.4816 15.5175 51.8145 15.7067 52.1412L17.4154 51.1493C17.0977 50.6008 16.6729 50.101 16.1602 49.6456L14.8673 51.1469ZM15.7099 52.1467C15.8982 52.4672 16.0094 52.7961 16.0516 53.1408L18.0236 52.9335C17.9461 52.3002 17.7396 51.7012 17.4122 51.1438L15.7099 52.1467ZM16.0516 53.1408C16.0936 53.4835 16.0675 53.8684 15.9519 54.3045L17.8719 54.8633C18.0437 54.2151 18.1014 53.5688 18.0236 52.9335L16.0516 53.1408ZM15.9554 54.2916C15.764 54.9771 15.4484 55.4609 15.0344 55.8001L16.3031 57.3752C17.0709 56.7462 17.5841 55.8941 17.8684 54.8761L15.9554 54.2916ZM15.0344 55.8001C14.6135 56.145 14.0648 56.3715 13.3405 56.4428L13.5729 58.4461C14.6163 58.3434 15.5423 57.9987 16.3031 57.3752L15.0344 55.8001ZM13.3386 56.443C12.6201 56.5151 11.7549 56.4185 10.7248 56.1096L10.1967 58.0386C11.4024 58.4002 12.5344 58.5505 13.5748 58.446L13.3386 56.443ZM10.7248 56.1096C9.69595 55.801 8.88694 55.3902 8.26845 54.899L7.06239 56.4733C7.92659 57.1596 8.98115 57.674 10.1967 58.0386L10.7248 56.1096ZM8.26845 54.899C7.67019 54.424 7.2893 53.8788 7.08417 53.2578L5.20097 53.861C5.54362 54.8983 6.17796 55.771 7.06239 56.4733L8.26845 54.899ZM7.08417 53.2578C6.88681 52.6603 6.86682 51.9226 7.1065 51.002L5.18435 50.4517C4.87246 51.6496 4.85057 52.8002 5.20097 53.861L7.08417 53.2578ZM5.88139 51.6914L8.98608 52.6225L9.51415 50.6935L6.40946 49.7623L5.88139 51.6914ZM8.27805 51.4296C8.15521 52.0151 8.16343 52.6095 8.36596 53.1758L10.2327 52.5249C10.1837 52.3877 10.1591 52.1872 10.2222 51.8864L8.27805 51.4296ZM8.36596 53.1758C8.56165 53.7231 8.90342 54.1801 9.35297 54.5442L10.5745 52.9824C10.3898 52.8327 10.2886 52.6811 10.2327 52.5249L8.36596 53.1758ZM9.35632 54.5469C9.79949 54.9029 10.3215 55.157 10.8959 55.3292L11.424 53.4002C11.0464 53.287 10.771 53.1402 10.5712 52.9797L9.35632 54.5469ZM10.8959 55.3292C11.4135 55.4845 11.9277 55.5633 12.4205 55.5239L12.2238 53.5173C12.0404 53.532 11.7797 53.5069 11.424 53.4002L10.8959 55.3292ZM12.4159 55.5242C12.8941 55.4883 13.3594 55.3519 13.7587 55.064L12.5844 53.4161C12.5363 53.4508 12.4353 53.5014 12.2285 53.517L12.4159 55.5242ZM13.7587 55.064C14.161 54.7739 14.4395 54.3733 14.5791 53.8939L12.6721 53.2884C12.6537 53.3517 12.6295 53.3836 12.5844 53.4161L13.7587 55.064ZM14.5879 53.8618C14.7061 53.3988 14.6774 52.9162 14.4685 52.4597L12.6686 53.2752C12.6704 53.279 12.6706 53.2803 12.6704 53.2794C12.6703 53.2791 12.6702 53.2787 12.6701 53.2782C12.67 53.2778 12.67 53.2775 12.67 53.2776C12.67 53.2777 12.6701 53.2784 12.6701 53.2798C12.6701 53.2812 12.67 53.2835 12.6697 53.2867C12.6691 53.2932 12.6675 53.3043 12.6634 53.3206L14.5879 53.8618ZM14.4734 52.4707C14.2813 52.0376 13.9571 51.6854 13.5995 51.3975L12.3829 52.9634C12.5905 53.1305 12.6513 53.2363 12.6637 53.2643L14.4734 52.4707ZM13.6125 51.4082C13.2733 51.1259 12.8508 50.8468 12.3627 50.5685L11.4151 52.3176C11.8425 52.5613 12.1548 52.7738 12.3699 52.9527L13.6125 51.4082ZM12.3639 50.5692L11.0525 49.819L10.1024 51.5667L11.4138 52.3169L12.3639 50.5692ZM11.0489 49.817C10.0606 49.257 9.41081 48.6552 9.02243 48.0404L7.35502 49.1005C7.97542 50.0825 8.91813 50.8957 10.106 51.5688L11.0489 49.817ZM9.02439 48.0436C8.69638 47.5203 8.59826 46.9119 8.81788 46.1229L6.90447 45.5401C6.55444 46.7976 6.67468 48.0152 7.35306 49.0974L9.02439 48.0436ZM8.8204 46.1137C8.99447 45.4645 9.30834 44.9859 9.75342 44.6324L8.50761 43.0388C7.70891 43.6731 7.17655 44.5251 6.90195 45.5494L8.8204 46.1137ZM9.75342 44.6324C10.2201 44.2618 10.8052 44.0172 11.5436 43.9232L11.2562 41.9261C10.2126 42.0589 9.28473 42.4216 8.50761 43.0388L9.75342 44.6324ZM11.5436 43.9232C12.277 43.8299 13.0912 43.9046 13.9985 44.1767L14.5266 42.2477C13.3991 41.9096 12.3048 41.7926 11.2562 41.9261L11.5436 43.9232ZM13.9985 44.1767C14.9306 44.4563 15.6455 44.8435 16.1795 45.3124L17.4634 43.8031C16.6641 43.1013 15.6731 42.5916 14.5266 42.2477L13.9985 44.1767ZM16.1847 45.317C16.7309 45.79 17.0758 46.3088 17.2604 46.8756L19.1463 46.2805C18.8328 45.3181 18.2565 44.49 17.4582 43.7986L16.1847 45.317ZM17.2604 46.8756C17.4428 47.4356 17.4613 48.0385 17.2846 48.7115L19.2057 49.2658C19.4714 48.2538 19.462 47.2497 19.1463 46.2805L17.2604 46.8756ZM18.5092 48.0241L15.4045 47.093L14.8764 49.022L17.9811 49.9531L18.5092 48.0241Z" fill="#113E4E"/>
<path d="M23.5642 60.057C22.4713 59.8757 21.5678 59.4947 20.8535 58.9141C20.1438 58.3342 19.6406 57.6084 19.3439 56.7367C19.0478 55.8605 18.9801 54.8927 19.1405 53.8335C19.3017 52.7697 19.6521 51.8714 20.1919 51.1385C20.7369 50.4019 21.4325 49.8727 22.2788 49.5511C23.1296 49.2302 24.097 49.1597 25.1808 49.3396C26.1387 49.4986 26.9467 49.8106 27.6047 50.2756C28.2672 50.7413 28.7504 51.3252 29.0544 52.0272C29.3636 52.7254 29.4649 53.5023 29.3583 54.3579L26.2754 53.8463C26.293 53.3039 26.1763 52.8572 25.9252 52.5059C25.6786 52.1554 25.3192 51.9409 24.847 51.8626C24.4648 51.7991 24.1133 51.8517 23.7927 52.0203C23.4728 52.1844 23.2001 52.4626 22.9747 52.8549C22.7545 53.2434 22.598 53.7442 22.5051 54.3572C22.4122 54.9702 22.4124 55.5016 22.5056 55.9515C22.604 56.3975 22.7808 56.7526 23.0358 57.0167C23.2916 57.2763 23.6106 57.4379 23.9928 57.5013C24.2986 57.5521 24.5784 57.5315 24.832 57.4396C25.0902 57.3484 25.3149 57.1893 25.506 56.9623C25.6978 56.7308 25.8416 56.4358 25.9374 56.0774L29.0203 56.5891C28.8591 57.4402 28.5321 58.153 28.0394 58.7274C27.5512 59.3025 26.9248 59.7091 26.1603 59.9473C25.401 60.1817 24.5356 60.2183 23.5642 60.057Z" fill="white"/>
<path d="M20.8535 58.9141L20.2302 59.6881L20.2321 59.6897L20.8535 58.9141ZM19.3439 56.7367L18.3994 57.0472L18.4001 57.0494L19.3439 56.7367ZM20.1919 51.1385L19.3881 50.5339L19.3869 50.5356L20.1919 51.1385ZM22.2788 49.5511L21.9171 48.6123L21.9148 48.6132L22.2788 49.5511ZM27.6047 50.2756L27.0379 51.0927L27.0399 51.0941L27.6047 50.2756ZM29.0544 52.0272L28.1402 52.4165L28.1436 52.4241L29.0544 52.0272ZM29.3583 54.3579L29.2085 55.3466L30.2215 55.5147L30.3484 54.4954L29.3583 54.3579ZM26.2754 53.8463L25.2781 53.8002L25.2492 54.6895L26.1256 54.835L26.2754 53.8463ZM25.9252 52.5059L25.1128 53.0769L25.1173 53.0831L25.9252 52.5059ZM23.7927 52.0203L24.2559 52.9142L24.2648 52.9095L23.7927 52.0203ZM22.9747 52.8549L22.1088 52.3453L22.106 52.3503L22.9747 52.8549ZM22.5056 55.9515L21.5288 56.143L21.5316 56.1557L22.5056 55.9515ZM23.0358 57.0167L22.3241 57.7095L22.3312 57.7167L23.0358 57.0167ZM24.832 57.4396L24.4899 56.4936L24.4824 56.4963L24.832 57.4396ZM25.506 56.9623L26.2715 57.6154L26.2765 57.6094L25.506 56.9623ZM25.9374 56.0774L26.0872 55.0887L25.2042 54.9422L24.9735 55.8055L25.9374 56.0774ZM29.0203 56.5891L30.0006 56.7891L30.1936 55.7702L29.1701 55.6003L29.0203 56.5891ZM28.0394 58.7274L27.2798 58.0674L27.2765 58.0712L28.0394 58.7274ZM26.1603 59.9473L26.4651 60.9056L26.4675 60.9048L26.1603 59.9473ZM23.714 59.0683C22.7573 58.9096 22.0266 58.5868 21.475 58.1384L20.2321 59.6897C21.109 60.4025 22.1853 60.8418 23.4144 61.0458L23.714 59.0683ZM21.4769 58.14C20.9157 57.6815 20.5231 57.116 20.2876 56.4239L18.4001 57.0494C18.758 58.1008 19.3719 58.9869 20.2302 59.6881L21.4769 58.14ZM20.2883 56.4261C20.0519 55.7262 19.9866 54.924 20.127 53.9972L18.154 53.6698C17.9735 54.8615 18.0438 55.9947 18.3994 57.0472L20.2883 56.4261ZM20.127 53.9972C20.2682 53.065 20.5676 52.3244 20.9969 51.7415L19.3869 50.5356C18.7367 51.4184 18.3351 52.4745 18.154 53.6698L20.127 53.9972ZM20.9957 51.7432C21.4303 51.1556 21.9743 50.7431 22.6428 50.489L21.9148 48.6132C20.8908 49.0023 20.0434 49.6481 19.3881 50.5339L20.9957 51.7432ZM22.6405 50.4899C23.2989 50.2416 24.085 50.1713 25.031 50.3283L25.3306 48.3509C24.1089 48.1481 22.9604 48.2188 21.9171 48.6123L22.6405 50.4899ZM25.031 50.3283C25.8704 50.4677 26.5282 50.7325 27.0379 51.0927L28.1715 49.4585C27.3652 48.8887 26.407 48.5295 25.3306 48.3509L25.031 50.3283ZM27.0399 51.0941C27.5583 51.4585 27.9155 51.8974 28.1402 52.4164L29.9686 51.6379C29.5854 50.753 28.9761 50.0241 28.1695 49.4571L27.0399 51.0941ZM28.1436 52.4241C28.3686 52.9322 28.4553 53.521 28.3682 54.2204L30.3484 54.4954C30.4744 53.4836 30.3586 52.5185 29.9652 51.6302L28.1436 52.4241ZM29.5081 53.3692L26.4252 52.8575L26.1256 54.835L29.2085 55.3466L29.5081 53.3692ZM27.2727 53.8924C27.2956 53.1873 27.1451 52.5051 26.7331 51.9287L25.1173 53.0831C25.2075 53.2092 25.2905 53.4206 25.2781 53.8002L27.2727 53.8924ZM26.7376 51.9349C26.314 51.3329 25.6993 50.9904 24.9968 50.8739L24.6972 52.8513C24.9392 52.8914 25.0432 52.9779 25.1129 53.0768L26.7376 51.9349ZM24.9968 50.8739C24.4153 50.7773 23.8437 50.856 23.3206 51.1311L24.2648 52.9095C24.3829 52.8474 24.5142 52.8209 24.6972 52.8513L24.9968 50.8739ZM23.3295 51.1265C22.8028 51.3966 22.4047 51.8304 22.1088 52.3453L23.8407 53.3645C23.9956 53.0948 24.1428 52.9721 24.2559 52.9141L23.3295 51.1265ZM22.106 52.3503C21.8081 52.8759 21.6232 53.503 21.5186 54.1935L23.4916 54.5209C23.5727 53.9855 23.7009 53.611 23.8435 53.3595L22.106 52.3503ZM21.5186 54.1935C21.4138 54.8851 21.4044 55.5425 21.5289 56.143L23.4824 55.7599C23.4204 55.4608 23.4107 55.0554 23.4916 54.5209L21.5186 54.1935ZM21.5316 56.1557C21.6606 56.7403 21.9093 57.2799 22.3241 57.7095L23.7476 56.324C23.6522 56.2253 23.5475 56.0547 23.4797 55.7472L21.5316 56.1557ZM22.3312 57.7167C22.7482 58.1401 23.2664 58.3943 23.8431 58.49L24.1426 56.5126C23.9547 56.4814 23.8349 56.4126 23.7405 56.3167L22.3312 57.7167ZM23.8431 58.49C24.2929 58.5647 24.7473 58.5402 25.1817 58.3828L24.4824 56.4963C24.4095 56.5227 24.3044 56.5394 24.1426 56.5126L23.8431 58.49ZM25.1742 58.3855C25.6109 58.2313 25.9776 57.9644 26.2715 57.6154L24.7405 56.3092C24.6521 56.4142 24.5695 56.4655 24.4899 56.4936L25.1742 58.3855ZM26.2765 57.6094C26.5772 57.2465 26.7769 56.8149 26.9014 56.3493L24.9735 55.8055C24.9064 56.0567 24.8185 56.215 24.7355 56.3152L26.2765 57.6094ZM25.7876 57.0661L28.8705 57.5778L29.1701 55.6003L26.0872 55.0887L25.7876 57.0661ZM28.04 56.389C27.9065 57.0936 27.6454 57.6412 27.2798 58.0674L28.7991 59.3874C29.4189 58.6648 29.8117 57.7868 30.0006 56.7891L28.04 56.389ZM27.2765 58.0712C26.9159 58.4959 26.4513 58.8034 25.8531 58.9897L26.4675 60.9048C27.3983 60.6149 28.1864 60.109 28.8023 59.3835L27.2765 58.0712ZM25.8555 58.989C25.273 59.1688 24.5678 59.21 23.714 59.0683L23.4144 61.0458C24.5034 61.2265 25.529 61.1945 26.4651 60.9056L25.8555 58.989Z" fill="#113E4E"/>
<path d="M30.3185 60.7583L31.1586 50.2885L34.4896 50.5813L33.6495 61.0511L30.3185 60.7583ZM32.9254 49.2151C32.4577 49.1739 32.0682 48.9841 31.7569 48.6456C31.446 48.3025 31.3083 47.9105 31.3436 47.4697C31.3786 47.0335 31.5766 46.6756 31.9374 46.3962C32.2986 46.1122 32.7131 45.9907 33.1809 46.0319C33.6532 46.0734 34.0425 46.2655 34.3488 46.6082C34.6601 46.9467 34.7982 47.3341 34.7632 47.7704C34.7278 48.2111 34.5296 48.5735 34.1683 48.8576C33.812 49.1374 33.3977 49.2566 32.9254 49.2151Z" fill="white"/>
<path d="M30.3185 60.7583L29.3223 60.6707L29.2423 61.6675L30.2385 61.7551L30.3185 60.7583ZM31.1586 50.2885L31.2386 49.2917L30.2424 49.2041L30.1624 50.2009L31.1586 50.2885ZM34.4896 50.5813L35.4858 50.6689L35.5658 49.6721L34.5696 49.5845L34.4896 50.5813ZM33.6495 61.0511L33.5695 62.0479L34.5657 62.1355L34.6457 61.1387L33.6495 61.0511ZM31.7569 48.6456L31.019 49.3149L31.024 49.3203L31.7569 48.6456ZM31.9374 46.3962L32.5526 47.1894L32.5583 47.1849L31.9374 46.3962ZM34.3488 46.6082L33.6064 47.2725L33.6159 47.2829L34.3488 46.6082ZM34.1683 48.8576L34.7888 49.6466L34.7892 49.6463L34.1683 48.8576ZM31.3146 60.8459L32.1548 50.376L30.1624 50.2009L29.3223 60.6707L31.3146 60.8459ZM31.0786 51.2853L34.4097 51.5781L34.5696 49.5845L31.2386 49.2917L31.0786 51.2853ZM33.4935 50.4937L32.6534 60.9636L34.6457 61.1387L35.4858 50.6689L33.4935 50.4937ZM33.7295 60.0543L30.3985 59.7615L30.2385 61.7551L33.5695 62.0479L33.7295 60.0543ZM33.0054 48.2183C32.7804 48.1985 32.6262 48.1192 32.4898 47.9708L31.024 49.3203C31.5101 49.849 32.1349 50.1494 32.8454 50.2119L33.0054 48.2183ZM32.4948 47.9762C32.3617 47.8294 32.3277 47.7085 32.3398 47.5573L30.3475 47.3822C30.2889 48.1126 30.5303 48.7755 31.0191 49.3149L32.4948 47.9762ZM32.3398 47.5573C32.3512 47.4145 32.4005 47.3072 32.5525 47.1894L31.3223 45.603C30.7527 46.0441 30.406 46.6525 30.3475 47.3822L32.3398 47.5573ZM32.5583 47.1849C32.7173 47.0599 32.8802 47.0093 33.1009 47.0287L33.2608 45.0351C32.546 44.9722 31.8799 45.1645 31.3166 45.6074L32.5583 47.1849ZM33.1009 47.0287C33.3286 47.0487 33.4776 47.1283 33.6064 47.2724L35.0912 45.9439C34.6074 45.4027 33.9777 45.0981 33.2608 45.0351L33.1009 47.0287ZM33.6159 47.2829C33.7471 47.4256 33.7785 47.54 33.7671 47.6828L35.7594 47.8579C35.8179 47.1283 35.5731 46.4679 35.0818 45.9335L33.6159 47.2829ZM33.7671 47.6828C33.7549 47.834 33.7021 47.9473 33.5475 48.0688L34.7892 49.6463C35.3571 49.1998 35.7008 48.5883 35.7594 47.8579L33.7671 47.6828ZM33.5479 48.0685C33.3988 48.1856 33.2375 48.2387 33.0054 48.2183L32.8454 50.2119C33.5579 50.2745 34.2252 50.0893 34.7888 49.6466L33.5479 48.0685Z" fill="#113E4E"/>
<path d="M36.0487 61.3308L36.1551 47.3265L41.94 47.3747C42.9885 47.3834 43.8918 47.596 44.65 48.0127C45.4128 48.4248 45.9988 48.9972 46.4081 49.7301C46.8174 50.4583 47.0184 51.3034 47.0111 52.2653C47.0038 53.2317 46.7854 54.0756 46.3559 54.7969C45.9311 55.5137 45.3273 56.0671 44.5448 56.4573C43.7623 56.8474 42.8354 57.038 41.7641 57.0291L38.1947 56.9994L38.2149 54.3325L41.1552 54.357C41.6658 54.3613 42.0927 54.2759 42.436 54.101C42.7838 53.9261 43.0478 53.6798 43.228 53.3622C43.4082 53.04 43.5 52.6646 43.5032 52.2361C43.5065 51.803 43.4205 51.4285 43.2451 51.1125C43.0697 50.7919 42.8095 50.5435 42.4643 50.3674C42.1192 50.1913 41.6936 50.1011 41.1876 50.0969L39.5191 50.083L39.4335 61.3589L36.0487 61.3308Z" fill="white"/>
<path d="M36.0487 61.3308L35.0487 61.3224L35.0411 62.3224L36.0411 62.3307L36.0487 61.3308ZM36.1551 47.3265L36.1627 46.3265L35.1627 46.3182L35.1551 47.3182L36.1551 47.3265ZM44.65 48.0127L44.1689 48.889L44.1752 48.8924L44.65 48.0127ZM46.4081 49.7301L45.5351 50.2172L45.5364 50.2196L46.4081 49.7301ZM46.3559 54.7969L45.4966 54.2849L45.4956 54.2866L46.3559 54.7969ZM44.5448 56.4573L44.9915 57.3523L44.5448 56.4573ZM38.1947 56.9994L37.1947 56.991L37.1871 57.991L38.1871 57.9993L38.1947 56.9994ZM38.2149 54.3325L38.2225 53.3326L37.2225 53.3242L37.2149 54.3242L38.2149 54.3325ZM42.436 54.101L41.9862 53.2075L41.9814 53.2099L42.436 54.101ZM43.228 53.3622L44.0978 53.8561L44.1008 53.8509L43.228 53.3622ZM43.2451 51.1125L42.3678 51.5919L42.3708 51.5973L43.2451 51.1125ZM42.4643 50.3674L42.0103 51.2581L42.0103 51.2581L42.4643 50.3674ZM39.5191 50.083L39.5267 49.0831L38.5268 49.0747L38.5192 50.0747L39.5191 50.083ZM39.4335 61.3589L39.4259 62.3589L40.4258 62.3672L40.4334 61.3672L39.4335 61.3589ZM37.0486 61.3391L37.155 47.3348L35.1551 47.3182L35.0487 61.3224L37.0486 61.3391ZM36.1475 48.3265L41.9324 48.3746L41.9476 46.3747L36.1627 46.3265L36.1475 48.3265ZM41.9324 48.3746C42.8502 48.3823 43.5837 48.5674 44.1689 48.889L45.1311 47.1363C44.1999 46.6247 43.1268 46.3845 41.9476 46.3747L41.9324 48.3746ZM44.1752 48.8924C44.7764 49.2172 45.2217 49.656 45.5351 50.2172L47.2811 49.2429C46.7759 48.3384 46.0491 47.6323 45.1248 47.1329L44.1752 48.8924ZM45.5364 50.2196C45.8481 50.7741 46.0173 51.4426 46.0112 52.257L48.0111 52.2736C48.0195 51.1643 47.7867 50.1426 47.2797 49.2406L45.5364 50.2196ZM46.0112 52.257C46.005 53.0732 45.8223 53.7378 45.4966 54.2849L47.2152 55.309C47.7484 54.4135 48.0026 53.3903 48.0111 52.2736L46.0112 52.257ZM45.4956 54.2866C45.1737 54.8296 44.7176 55.2534 44.0981 55.5622L44.9915 57.3523C45.9371 56.8809 46.6884 56.1978 47.2162 55.3073L45.4956 54.2866ZM44.0981 55.5622C43.4848 55.868 42.7202 56.037 41.7717 56.0291L41.7565 58.029C42.9505 58.039 44.0397 57.8268 44.9915 57.3523L44.0981 55.5622ZM41.7717 56.0291L38.2022 55.9994L38.1871 57.9993L41.7565 58.029L41.7717 56.0291ZM39.1946 57.0077L39.2149 54.3409L37.2149 54.3242L37.1947 56.991L39.1946 57.0077ZM38.2073 55.3325L41.1476 55.357L41.1628 53.357L38.2225 53.3326L38.2073 55.3325ZM41.1476 55.357C41.7687 55.3621 42.3654 55.2596 42.8906 54.992L41.9814 53.2099C41.82 53.2922 41.5629 53.3604 41.1628 53.357L41.1476 55.357ZM42.8857 54.9944C43.3977 54.737 43.8136 54.3571 44.0978 53.8561L42.3582 52.8682C42.2819 53.0025 42.1698 53.1152 41.9862 53.2075L42.8857 54.9944ZM44.1008 53.8509C44.3755 53.3598 44.4989 52.8141 44.5032 52.2444L42.5033 52.2278C42.5011 52.5152 42.441 52.7201 42.3552 52.8734L44.1008 53.8509ZM44.5032 52.2444C44.5075 51.6732 44.3936 51.1219 44.1194 50.6277L42.3708 51.5973C42.4473 51.7351 42.5055 51.9329 42.5033 52.2278L44.5032 52.2444ZM44.1223 50.633C43.8444 50.125 43.4312 49.7385 42.9183 49.4767L42.0103 51.2581C42.1877 51.3486 42.295 51.4587 42.3678 51.5919L44.1223 50.633ZM42.9183 49.4767C42.3991 49.2118 41.8107 49.1021 41.1952 49.097L41.18 51.0969C41.5766 51.1002 41.8392 51.1708 42.0103 51.2581L42.9183 49.4767ZM41.1952 49.097L39.5267 49.0831L39.5115 51.083L41.18 51.0969L41.1952 49.097ZM38.5192 50.0747L38.4335 61.3506L40.4334 61.3672L40.5191 50.0914L38.5192 50.0747ZM39.4411 60.3589L36.0563 60.3308L36.0411 62.3307L39.4259 62.3589L39.4411 60.3589Z" fill="#113E4E"/>
<path d="M53.5271 61.1254C52.8603 61.1925 52.2582 61.1409 51.7207 60.9705C51.1872 60.7951 50.75 60.4955 50.4089 60.0716C50.0719 59.6428 49.8718 59.0834 49.8084 58.3934C49.755 57.8123 49.812 57.3117 49.9794 56.8917C50.1468 56.4716 50.3982 56.1187 50.7336 55.833C51.069 55.5472 51.4644 55.3173 51.9199 55.1431C52.375 54.9645 52.8659 54.8257 53.3924 54.7269C53.9816 54.6126 54.4549 54.5077 54.8123 54.4121C55.1694 54.312 55.4243 54.197 55.5772 54.0671C55.7342 53.9322 55.8029 53.758 55.7832 53.5447L55.7801 53.5106C55.748 53.1611 55.603 52.9031 55.3451 52.7366C55.0871 52.5701 54.7541 52.5074 54.3458 52.5485C53.9059 52.5928 53.5608 52.7238 53.3107 52.9414C53.0606 53.159 52.9147 53.4394 52.873 53.7827L49.7945 53.9826C49.8268 53.3379 50.0083 52.7469 50.3388 52.2097C50.6736 51.6674 51.1589 51.2199 51.7949 50.8673C52.4349 50.5096 53.2222 50.2838 54.1566 50.1897C54.8233 50.1226 55.4452 50.1401 56.0223 50.2424C56.5989 50.3401 57.1097 50.5178 57.5545 50.7754C57.9989 51.0285 58.3543 51.3593 58.6207 51.7677C58.8917 52.1757 59.0526 52.6566 59.1035 53.2104L59.7567 60.3196L56.627 60.6346L56.4931 59.1774L56.4114 59.1856C56.258 59.5584 56.0474 59.882 55.7796 60.1564C55.5164 60.4303 55.1954 60.6482 54.8165 60.81C54.4423 60.9714 54.0124 61.0765 53.5271 61.1254ZM54.3543 58.8429C54.7126 58.8068 55.028 58.7018 55.3004 58.5277C55.5773 58.3532 55.7903 58.1302 55.9393 57.8586C56.0879 57.5825 56.1465 57.2742 56.1153 56.9338L56.0239 55.9396C55.9332 55.9991 55.8217 56.0561 55.6894 56.1107C55.5616 56.1648 55.42 56.218 55.2646 56.2703C55.1092 56.3226 54.9488 56.3708 54.7835 56.4149C54.6182 56.4591 54.4594 56.5002 54.3073 56.5385C53.9989 56.6199 53.7384 56.724 53.5257 56.8508C53.3176 56.9771 53.1623 57.1302 53.0598 57.3101C52.9614 57.4849 52.9227 57.6858 52.9435 57.9128C52.9752 58.2578 53.1219 58.5088 53.3835 58.6657C53.6497 58.8222 53.9732 58.8813 54.3543 58.8429Z" fill="white"/>
<path d="M51.7207 60.9705L51.4017 61.9217L51.4118 61.9249L51.7207 60.9705ZM50.4089 60.0716L49.6217 60.6948L49.6289 60.7038L50.4089 60.0716ZM49.9794 56.8917L49.0519 56.5275L49.0519 56.5275L49.9794 56.8917ZM50.7336 55.833L51.3772 56.593L50.7336 55.833ZM51.9199 55.1431L52.2693 56.0778L52.2777 56.0745L51.9199 55.1431ZM53.3924 54.7269L53.5683 55.7106L53.5743 55.7094L53.3924 54.7269ZM54.8123 54.4121L55.0623 55.379L55.074 55.3758L54.8123 54.4121ZM55.5772 54.0671L56.2199 54.8279L56.2241 54.8243L55.5772 54.0671ZM55.3451 52.7366L55.8913 51.8939L55.3451 52.7366ZM53.3107 52.9414L52.6592 52.1882L52.6592 52.1882L53.3107 52.9414ZM52.873 53.7827L52.9292 54.7814L53.7638 54.7272L53.8648 53.8952L52.873 53.7827ZM49.7945 53.9826L48.7966 53.9409L48.7408 55.0534L49.8506 54.9813L49.7945 53.9826ZM50.3388 52.2097L49.4902 51.6886L49.4895 51.6898L50.3388 52.2097ZM51.7949 50.8673L52.2731 51.7419L52.2759 51.7403L51.7949 50.8673ZM56.0223 50.2424L55.8401 51.228L55.8474 51.2293L56.0223 50.2424ZM57.5545 50.7754L57.0488 51.643L57.0551 51.6465L57.5545 50.7754ZM58.6207 51.7677L57.7829 52.3201L57.7874 52.3269L58.6207 51.7677ZM59.7567 60.3196L59.8482 61.3154L60.8432 61.2152L60.7517 60.2194L59.7567 60.3196ZM56.627 60.6346L55.632 60.7348L55.7235 61.7306L56.7185 61.6304L56.627 60.6346ZM56.4931 59.1774L57.4881 59.0772L57.3966 58.0814L56.4016 58.1816L56.4931 59.1774ZM56.4114 59.1856L56.3199 58.1898L55.7189 58.2503L55.4882 58.8109L56.4114 59.1856ZM55.7796 60.1564L55.0681 59.4599L55.0626 59.4655L55.7796 60.1564ZM54.8165 60.81L54.4312 59.8899L54.4281 59.8913L54.8165 60.81ZM55.3004 58.5277L54.7736 57.6818L54.7682 57.6853L55.3004 58.5277ZM55.9393 57.8586L56.814 58.3349L56.8179 58.3277L55.9393 57.8586ZM56.0239 55.9396L57.0189 55.8394L56.8677 54.1936L55.4812 55.1039L56.0239 55.9396ZM55.6894 56.1107L55.3159 55.1856L55.3071 55.1893L55.6894 56.1107ZM54.7835 56.4149L55.0331 57.3819L55.0331 57.3819L54.7835 56.4149ZM54.3073 56.5385L54.072 55.5678L54.0603 55.5708L54.3073 56.5385ZM53.5257 56.8508L53.0201 55.9919L53.0133 55.9961L53.5257 56.8508ZM53.0598 57.3101L52.1931 56.8195L52.1904 56.8243L53.0598 57.3101ZM53.3835 58.6657L52.8648 59.5256L52.8723 59.53L53.3835 58.6657ZM53.4356 60.1296C52.8794 60.1856 52.4164 60.1387 52.0295 60.016L51.4118 61.9249C52.0999 62.143 52.8413 62.1994 53.6186 62.1212L53.4356 60.1296ZM52.0396 60.0193C51.6816 59.9016 51.4065 59.7098 51.1889 59.4395L49.6289 60.7038C50.0935 61.2811 50.6929 61.6886 51.4017 61.9216L52.0396 60.0193ZM51.1961 59.4485C51.0049 59.2053 50.8538 58.8425 50.8033 58.2932L48.8134 58.4935C48.8897 59.3242 49.139 60.0804 49.6218 60.6948L51.1961 59.4485ZM50.8033 58.2932C50.7603 57.8248 50.8131 57.4913 50.9069 57.2559L49.0519 56.5275C48.8109 57.1321 48.7496 57.7998 48.8134 58.4935L50.8033 58.2932ZM50.9069 57.2559C51.015 56.9846 51.1707 56.7689 51.3772 56.593L50.09 55.073C49.6257 55.4685 49.2785 55.9587 49.0519 56.5275L50.9069 57.2559ZM51.3772 56.593C51.616 56.3895 51.9093 56.2154 52.2692 56.0778L51.5706 54.2085C51.0195 54.4192 50.5219 54.705 50.09 55.073L51.3772 56.593ZM52.2777 56.0745C52.6685 55.9211 53.0979 55.7988 53.5683 55.7105L53.2165 53.7432C52.6338 53.8526 52.0816 54.0078 51.5622 54.2117L52.2777 56.0745ZM53.5743 55.7094C54.1741 55.593 54.6729 55.483 55.0622 55.379L54.5624 53.4453C54.2369 53.5323 53.789 53.6321 53.2105 53.7444L53.5743 55.7094ZM55.074 55.3758C55.4715 55.2643 55.8975 55.1019 56.2199 54.8279L54.9345 53.3063C54.9525 53.291 54.9401 53.3061 54.8675 53.3388C54.7982 53.3701 54.6953 53.408 54.5507 53.4485L55.074 55.3758ZM56.2241 54.8243C56.6404 54.4664 56.8262 53.967 56.7782 53.4445L54.7883 53.6448C54.7858 53.6184 54.786 53.5544 54.8176 53.4744C54.8497 53.393 54.8973 53.3382 54.9303 53.3099L56.2241 54.8243ZM56.7782 53.4445L56.7751 53.4105L54.7851 53.6108L54.7883 53.6448L56.7782 53.4445ZM56.7751 53.4105C56.7194 52.8045 56.4423 52.2495 55.8913 51.8939L54.7988 53.5793C54.8006 53.5804 54.7967 53.5781 54.7905 53.5715C54.7841 53.5648 54.7789 53.5575 54.7756 53.5516C54.7724 53.5459 54.7732 53.5456 54.7756 53.5537C54.778 53.5622 54.7824 53.5804 54.7851 53.6108L56.7751 53.4105ZM55.8913 51.8939C55.3906 51.5707 54.8126 51.4965 54.2543 51.5527L54.4373 53.5443C54.6955 53.5183 54.7837 53.5695 54.7988 53.5793L55.8913 51.8939ZM54.2543 51.5527C53.6767 51.6109 53.1123 51.794 52.6592 52.1882L53.9623 53.6945C54.0094 53.6536 54.135 53.5748 54.4373 53.5443L54.2543 51.5527ZM52.6592 52.1882C52.211 52.5781 51.9515 53.0914 51.8812 53.6701L53.8648 53.8952C53.8779 53.7875 53.9102 53.7399 53.9623 53.6945L52.6592 52.1882ZM52.8168 52.7839L49.7383 52.9839L49.8506 54.9813L52.9292 54.7814L52.8168 52.7839ZM50.7924 54.0243C50.8165 53.544 50.949 53.1183 51.1882 52.7295L49.4895 51.6898C49.0675 52.3756 48.8371 53.1318 48.7966 53.9409L50.7924 54.0243ZM51.1875 52.7307C51.4187 52.3561 51.7668 52.0226 52.2731 51.7419L51.3166 49.9927C50.5509 50.4173 49.9284 50.9787 49.4902 51.6886L51.1875 52.7307ZM52.2759 51.7403C52.7667 51.4661 53.413 51.2696 54.2481 51.1855L54.0651 49.1939C53.0314 49.298 52.1032 49.5531 51.3138 49.9942L52.2759 51.7403ZM54.2481 51.1855C54.836 51.1263 55.3649 51.1438 55.8401 51.228L56.2045 49.2568C55.5256 49.1365 54.8106 49.1188 54.0651 49.1939L54.2481 51.1855ZM55.8474 51.2293C56.3231 51.3099 56.719 51.4519 57.0489 51.6429L58.0601 49.9079C57.5003 49.5837 56.8748 49.3704 56.1971 49.2556L55.8474 51.2293ZM57.0551 51.6465C57.3699 51.8258 57.6066 52.0499 57.7829 52.3201L59.4586 51.2153C59.102 50.6686 58.6279 50.2312 58.0539 49.9043L57.0551 51.6465ZM57.7874 52.3269C57.956 52.5808 58.0707 52.8992 58.1085 53.3106L60.0985 53.1103C60.0345 52.4139 59.8274 51.7706 59.4541 51.2084L57.7874 52.3269ZM58.1085 53.3106L58.7618 60.4197L60.7517 60.2194L60.0985 53.1103L58.1085 53.3106ZM59.6652 59.3238L56.5355 59.6388L56.7185 61.6304L59.8482 61.3154L59.6652 59.3238ZM57.622 60.5345L57.4881 59.0772L55.4981 59.2776L55.632 60.7348L57.622 60.5345ZM56.4016 58.1816L56.3199 58.1898L56.5029 60.1814L56.5846 60.1732L56.4016 58.1816ZM55.4882 58.8109C55.3814 59.0703 55.2406 59.2831 55.0681 59.4599L56.4912 60.8529C56.8542 60.4809 57.1346 60.0465 57.3347 59.5603L55.4882 58.8109ZM55.0626 59.4655C54.9014 59.6333 54.6962 59.7767 54.4312 59.8899L55.2019 61.7301C55.6945 61.5196 56.1314 61.2273 56.4966 60.8473L55.0626 59.4655ZM54.4281 59.8913C54.1651 60.0047 53.8385 60.089 53.4356 60.1296L53.6186 62.1212C54.1864 62.064 54.7194 61.9381 55.205 61.7288L54.4281 59.8913ZM54.4458 59.8387C54.942 59.7888 55.412 59.6389 55.8325 59.3702L54.7682 57.6853C54.6439 57.7647 54.4832 57.8249 54.2628 57.8471L54.4458 59.8387ZM55.8272 59.3736C56.2409 59.113 56.5775 58.7659 56.814 58.3349L55.0646 57.3824C55.0031 57.4945 54.9138 57.5935 54.7736 57.6819L55.8272 59.3736ZM56.8179 58.3277C57.0693 57.8605 57.1578 57.3512 57.1102 56.8336L55.1203 57.0339C55.1353 57.1972 55.1065 57.3045 55.0607 57.3896L56.8179 58.3277ZM57.1102 56.8336L57.0189 55.8394L55.0289 56.0397L55.1203 57.0339L57.1102 56.8336ZM55.4812 55.1039C55.4578 55.1192 55.4067 55.1482 55.3159 55.1857L56.063 57.0357C56.2368 56.9641 56.4086 56.8789 56.5666 56.7752L55.4812 55.1039ZM55.3071 55.1893C55.2066 55.2319 55.0892 55.2762 54.9537 55.3218L55.5755 57.2187C55.7509 57.1597 55.9167 57.0977 56.0717 57.0321L55.3071 55.1893ZM54.9537 55.3218C54.8194 55.367 54.6795 55.4091 54.5339 55.448L55.0331 57.3819C55.2181 57.3325 55.399 57.2781 55.5755 57.2187L54.9537 55.3218ZM54.5339 55.448C54.3729 55.491 54.219 55.5309 54.072 55.5678L54.5426 57.5091C54.6999 57.4696 54.8634 57.4272 55.0331 57.3819L54.5339 55.448ZM54.0603 55.5708C53.686 55.6697 53.3331 55.8054 53.0201 55.9919L54.0313 57.7097C54.1437 57.6427 54.3118 57.5701 54.5543 57.5061L54.0603 55.5708ZM53.0133 55.9961C52.6843 56.1958 52.3948 56.4656 52.1931 56.8195L53.9265 57.8006C53.9298 57.7948 53.951 57.7585 54.0382 57.7056L53.0133 55.9961ZM52.1904 56.8243C51.9779 57.2019 51.9117 57.6125 51.9485 58.013L53.9385 57.8126C53.9357 57.7824 53.9384 57.7711 53.9379 57.7737C53.9377 57.7748 53.937 57.778 53.9353 57.7826C53.9336 57.7873 53.9315 57.7918 53.9292 57.7958L52.1904 56.8243ZM51.9485 58.013C52.0049 58.6261 52.2944 59.1834 52.8648 59.5255L53.9022 57.8059C53.902 57.8058 53.9083 57.8096 53.9175 57.8188C53.9268 57.8281 53.9348 57.8387 53.9407 57.8487C53.9464 57.8585 53.9473 57.8631 53.9461 57.8591C53.9448 57.8546 53.941 57.8401 53.9385 57.8126L51.9485 58.013ZM52.8723 59.53C53.3589 59.816 53.9047 59.8932 54.4458 59.8387L54.2628 57.8471C54.0418 57.8693 53.9404 57.8284 53.8947 57.8015L52.8723 59.53Z" fill="#113E4E"/>
<path d="M70.1223 50.8794L67.1324 51.5886C67.0601 51.3802 66.939 51.2077 66.769 51.0709C66.5982 50.9297 66.3922 50.8354 66.1512 50.788C65.9137 50.7352 65.65 50.7392 65.3599 50.7999C64.9806 50.8792 64.6716 51.023 64.433 51.2313C64.1988 51.4386 64.1087 51.6716 64.1628 51.9304C64.1968 52.1329 64.3104 52.2907 64.5038 52.4039C64.7015 52.5162 65.0254 52.5719 65.4753 52.5709L67.5284 52.5326C68.5923 52.515 69.4178 52.6822 70.0047 53.0344C70.5962 53.3857 70.9659 53.937 71.114 54.6884C71.2447 55.3968 71.1525 56.0564 70.8376 56.6671C70.5271 57.2769 70.0426 57.802 69.3842 58.2424C68.725 58.6784 67.9358 58.9925 67.0166 59.1848C65.5485 59.4918 64.3328 59.4318 63.3696 59.0046C62.4099 58.572 61.7724 57.8579 61.457 56.8621L64.6745 56.1053C64.8177 56.4665 65.0576 56.7143 65.3942 56.8488C65.7308 56.9833 66.1311 57.002 66.5952 56.9049C67.0146 56.8172 67.341 56.6674 67.5744 56.4556C67.8077 56.2438 67.9018 56.0076 67.8567 55.7469C67.8078 55.515 67.6697 55.3507 67.4424 55.2539C67.2142 55.1526 66.8782 55.1064 66.4345 55.1154L64.5753 55.1481C63.5086 55.1756 62.6748 54.9891 62.074 54.5886C61.4723 54.1836 61.0984 53.5866 60.9524 52.7975C60.8163 52.1089 60.8868 51.4818 61.164 50.9162C61.4403 50.3462 61.895 49.8599 62.5281 49.4573C63.1613 49.0548 63.9419 48.7565 64.87 48.5623C66.2623 48.2711 67.416 48.3348 68.3312 48.7534C69.2455 49.1675 69.8426 49.8762 70.1223 50.8794Z" fill="white"/>
<path d="M70.1223 50.8794L70.3359 51.8558L71.3659 51.6115L71.0821 50.5938L70.1223 50.8794ZM67.1324 51.5886L66.1908 51.933L66.4812 52.7702L67.346 52.5651L67.1324 51.5886ZM66.769 51.0709L66.129 51.8505L66.1392 51.8587L66.769 51.0709ZM66.1512 50.788L65.9213 51.768L65.9332 51.7706L65.9451 51.7729L66.1512 50.788ZM64.433 51.2313L63.7872 50.4776L63.7818 50.4824L64.433 51.2313ZM64.1628 51.9304L65.1455 51.7475L65.1422 51.7281L65.1382 51.7088L64.1628 51.9304ZM64.5038 52.4039L63.9922 53.2733L64.0036 53.2798L64.5038 52.4039ZM65.4753 52.5709L65.4613 53.5743L65.4695 53.5743L65.4776 53.5741L65.4753 52.5709ZM67.5284 52.5326L67.5281 51.5294L67.526 51.5294L67.5284 52.5326ZM70.0047 53.0344L69.4843 53.8985L69.4881 53.9008L70.0047 53.0344ZM71.114 54.6884L72.0941 54.4898L72.0917 54.4778L71.114 54.6884ZM70.8376 56.6671L69.9546 56.2162L69.9522 56.2209L70.8376 56.6671ZM69.3842 58.2424L69.9219 59.0784L69.9264 59.0754L69.3842 58.2424ZM63.3696 59.0046L62.9501 59.9215L62.9555 59.9239L63.3696 59.0046ZM61.457 56.8621L61.2452 55.8852L60.1763 56.1367L60.507 57.181L61.457 56.8621ZM64.6745 56.1053L65.6009 55.7203L65.2891 54.934L64.4627 55.1284L64.6745 56.1053ZM65.3942 56.8488L65.7747 55.9154L65.7747 55.9154L65.3942 56.8488ZM67.5744 56.4556L66.9137 55.7153L66.9137 55.7153L67.5744 56.4556ZM67.8567 55.7469L68.8386 55.5592L68.8355 55.5412L68.8317 55.5234L67.8567 55.7469ZM67.4424 55.2539L67.028 56.173L67.0347 56.176L67.0415 56.1789L67.4424 55.2539ZM66.4345 55.1154L66.4357 56.1186L66.4384 56.1186L66.4345 55.1154ZM64.5753 55.1481L64.574 54.1448L64.5658 54.1451L64.5753 55.1481ZM62.074 54.5886L61.5108 55.4255L61.5145 55.428L62.074 54.5886ZM60.9524 52.7975L61.9323 52.5984L61.93 52.5864L60.9524 52.7975ZM61.164 50.9162L62.0563 51.3484L62.0583 51.3444L61.164 50.9162ZM62.5281 49.4573L62.0058 48.6114L62.0058 48.6114L62.5281 49.4573ZM68.3312 48.7534L67.9068 49.6681L67.9101 49.6695L68.3312 48.7534ZM69.9086 49.903L66.9187 50.6122L67.346 52.5651L70.3359 51.8558L69.9086 49.903ZM68.0739 51.2443C67.9413 50.8621 67.7127 50.5357 67.3988 50.2831L66.1392 51.8587C66.1652 51.8796 66.1788 51.8984 66.1908 51.933L68.0739 51.2443ZM67.4089 50.2913C67.1001 50.0361 66.7408 49.8785 66.3573 49.8031L65.9451 51.7729C66.0436 51.7923 66.0962 51.8233 66.1291 51.8505L67.4089 50.2913ZM66.381 49.8081C65.981 49.7192 65.5721 49.734 65.1724 49.8176L65.5475 51.7821C65.7278 51.7444 65.8465 51.7513 65.9213 51.768L66.381 49.8081ZM65.1724 49.8176C64.6629 49.9242 64.1843 50.1311 63.7872 50.4776L65.0787 51.9849C65.159 51.9149 65.2983 51.8342 65.5475 51.7821L65.1724 49.8176ZM63.7818 50.4824C63.3304 50.882 63.0446 51.4689 63.1873 52.1521L65.1382 51.7088C65.1423 51.7286 65.146 51.7596 65.1432 51.7988C65.1403 51.8385 65.1313 51.8773 65.1178 51.9122C65.0907 51.9823 65.0595 52.002 65.0842 51.9801L63.7818 50.4824ZM63.18 52.1133C63.2679 52.6361 63.5771 53.0301 63.9922 53.2733L65.0153 51.5346C65.018 51.5362 65.0495 51.5557 65.0836 51.6031C65.1194 51.6528 65.1385 51.706 65.1455 51.7475L63.18 52.1133ZM64.0036 53.2798C64.4337 53.5241 64.9762 53.5753 65.4613 53.5743L65.4893 51.5675C65.3021 51.5679 65.1682 51.5562 65.0781 51.5408C64.9829 51.5244 64.9716 51.5097 65.0039 51.528L64.0036 53.2798ZM65.4776 53.5741L67.5307 53.5358L67.526 51.5294L65.473 51.5677L65.4776 53.5741ZM67.5287 53.5358C68.5011 53.5197 69.1175 53.6784 69.4843 53.8985L70.5251 52.1704C69.718 51.686 68.6835 51.5102 67.5281 51.5294L67.5287 53.5358ZM69.4881 53.9008C69.8138 54.0942 70.0363 54.3914 70.1364 54.899L72.0917 54.4778C71.8956 53.4827 71.3785 52.6772 70.5214 52.1681L69.4881 53.9008ZM70.1341 54.8869C70.2266 55.3887 70.1599 55.8181 69.9546 56.2162L71.7205 57.1181C72.1451 56.2947 72.2628 55.4049 72.094 54.4899L70.1341 54.8869ZM69.9522 56.2209C69.7332 56.651 69.3786 57.0505 68.8421 57.4095L69.9264 59.0754C70.7066 58.5535 71.3209 57.9028 71.7229 57.1133L69.9522 56.2209ZM68.8466 57.4065C68.3128 57.7595 67.6475 58.0313 66.829 58.2025L67.2041 60.167C68.2241 59.9537 69.1372 59.5973 69.9219 59.0784L68.8466 57.4065ZM66.829 58.2025C65.4833 58.484 64.4956 58.4011 63.7836 58.0853L62.9555 59.9239C64.1701 60.4625 65.6137 60.4997 67.2041 60.167L66.829 58.2025ZM63.7891 58.0877C63.0788 57.7676 62.6365 57.268 62.407 56.5433L60.507 57.181C60.9083 58.4478 61.741 59.3765 62.9501 59.9215L63.7891 58.0877ZM61.6688 57.839L64.8863 57.0821L64.4627 55.1284L61.2452 55.8852L61.6688 57.839ZM63.7481 56.4902C63.9834 57.0836 64.4097 57.5409 65.0137 57.7822L65.7747 55.9154C65.7055 55.8877 65.6521 55.8493 65.6009 55.7203L63.7481 56.4902ZM65.0137 57.7822C65.5763 58.0071 66.1838 58.0125 66.7827 57.8872L66.4076 55.9227C66.0784 55.9915 65.8853 55.9595 65.7747 55.9154L65.0137 57.7822ZM66.7827 57.8872C67.3155 57.7757 67.827 57.5663 68.2351 57.196L66.9137 55.7153C66.855 55.7685 66.7138 55.8586 66.4076 55.9227L66.7827 57.8872ZM68.2351 57.196C68.6719 56.7995 68.9546 56.229 68.8386 55.5592L66.8748 55.9347C66.8716 55.9164 66.8694 55.8888 66.8727 55.8548C66.8761 55.8204 66.8844 55.7877 66.8958 55.7591C66.9187 55.7017 66.942 55.6896 66.9137 55.7153L68.2351 57.196ZM68.8317 55.5234C68.7125 54.958 68.3469 54.5433 67.8432 54.3288L67.0415 56.1789C67.0356 56.1764 66.9948 56.1568 66.9512 56.105C66.9064 56.0516 66.8876 55.9984 66.8817 55.9705L68.8317 55.5234ZM67.8568 54.3347C67.4324 54.1463 66.9242 54.1022 66.4305 54.1123L66.4384 56.1186C66.8323 56.1106 66.996 56.1588 67.028 56.173L67.8568 54.3347ZM66.4332 54.1122L64.574 54.1449L64.5765 56.1513L66.4357 56.1186L66.4332 54.1122ZM64.5658 54.1451C63.6115 54.1697 63.0048 53.9968 62.6335 53.7493L61.5145 55.428C62.3448 55.9815 63.4056 56.1816 64.5847 56.1511L64.5658 54.1451ZM62.6371 53.7517C62.276 53.5086 62.0351 53.1539 61.9323 52.5984L59.9725 52.9967C60.1618 54.0193 60.6685 54.8586 61.5108 55.4255L62.6371 53.7517ZM61.93 52.5864C61.8311 52.0863 61.8894 51.6891 62.0563 51.3484L60.2716 50.484C59.8842 51.2745 59.8014 52.1315 59.9748 53.0087L61.93 52.5864ZM62.0583 51.3444C62.2372 50.9753 62.547 50.6233 63.0505 50.3032L62.0058 48.6114C61.243 49.0964 60.6434 49.717 60.2697 50.488L62.0583 51.3444ZM63.0505 50.3032C63.5571 49.9811 64.2172 49.7204 65.0576 49.5446L64.6825 47.5801C63.6666 47.7926 62.7654 48.1285 62.0058 48.6114L63.0505 50.3032ZM65.0576 49.5446C66.3236 49.2797 67.2453 49.3655 67.9068 49.668L68.7555 47.8387C67.5867 47.3041 66.2009 47.2624 64.6825 47.5801L65.0576 49.5446ZM67.9101 49.6695C68.5517 49.9601 68.9583 50.4328 69.1624 51.165L71.0821 50.5938C70.7269 49.3196 69.9393 48.3749 68.7522 47.8372L67.9101 49.6695Z" fill="#113E4E"/>
<path d="M80.5959 47.4879L77.7135 48.555C77.6184 48.3563 77.4789 48.1992 77.2951 48.0836C77.11 47.9637 76.8953 47.8947 76.6511 47.8767C76.4099 47.8528 76.149 47.8886 75.8685 47.984C75.5016 48.1088 75.2117 48.2893 74.9987 48.5254C74.79 48.76 74.727 49.0029 74.8097 49.2539C74.8663 49.4513 74.9967 49.5947 75.201 49.684C75.4096 49.7719 75.7367 49.7882 76.1824 49.7329L78.2122 49.4468C79.2644 49.3007 80.1011 49.3675 80.7224 49.6471C81.348 49.9253 81.7765 50.4294 82.0079 51.1594C82.2171 51.8487 82.2002 52.5164 81.9569 53.1623C81.718 53.8067 81.2972 54.3879 80.6945 54.9058C80.0905 55.4193 79.3439 55.8273 78.4549 56.1298C77.0349 56.6128 75.8237 56.6998 74.8212 56.391C73.8216 56.0764 73.1094 55.4425 72.6847 54.4895L75.7873 53.3475C75.9699 53.6897 76.2355 53.9075 76.5842 54.0007C76.9328 54.0939 77.3316 54.0641 77.7804 53.9115C78.1861 53.7735 78.4926 53.585 78.7 53.346C78.9073 53.107 78.9739 52.8605 78.8998 52.6065C78.8252 52.3815 78.6698 52.2346 78.4337 52.1657C78.1963 52.0925 77.8582 52.0871 77.4195 52.1497L75.5811 52.4068C74.5273 52.5631 73.6802 52.4782 73.0398 52.1521C72.398 51.8216 71.9603 51.2726 71.7267 50.5048C71.5142 49.8358 71.5134 49.2031 71.7243 48.6067C71.9338 48.0059 72.3295 47.467 72.9115 46.9898C73.4934 46.5127 74.2332 46.1214 75.1309 45.8161C76.4775 45.358 77.6278 45.2821 78.5817 45.5882C79.5343 45.8899 80.2057 46.5231 80.5959 47.4879Z" fill="white"/>
<path d="M80.5959 47.4879L80.9177 48.434L81.9106 48.0664L81.5148 47.0877L80.5959 47.4879ZM77.7135 48.555L76.8195 49.0115L77.2015 49.8098L78.0352 49.5011L77.7135 48.555ZM77.2951 48.0836L76.7489 48.9369L76.7599 48.9438L77.2951 48.0836ZM76.6511 47.8767L76.5338 48.8798L76.5459 48.881L76.5579 48.8819L76.6511 47.8767ZM74.9987 48.5254L74.2739 47.8532L74.2691 47.8587L74.9987 48.5254ZM74.8098 49.2539L75.7628 48.9532L75.7574 48.9342L75.7512 48.9155L74.8098 49.2539ZM75.201 49.684L74.7921 50.6112L74.8041 50.6163L75.201 49.684ZM76.1824 49.7329L76.2816 50.7333L76.2897 50.7323L76.2978 50.7311L76.1824 49.7329ZM78.2122 49.4468L78.0989 48.4482L78.0969 48.4485L78.2122 49.4468ZM80.7224 49.6471L80.3041 50.5701L80.3081 50.5718L80.7224 49.6471ZM82.0079 51.1594L82.9565 50.8433L82.9528 50.8316L82.0079 51.1594ZM81.9569 53.1623L81.0313 52.8201L81.0294 52.8251L81.9569 53.1623ZM80.6945 54.9058L81.3215 55.6729L81.3256 55.6694L80.6945 54.9058ZM74.8212 56.391L74.5089 57.3543L74.5145 57.3561L74.8212 56.391ZM72.6847 54.4895L72.3648 53.5428L71.334 53.9222L71.7794 54.9216L72.6847 54.4895ZM75.7873 53.3475L76.6618 52.8525L76.2643 52.1074L75.4673 52.4008L75.7873 53.3475ZM76.5842 54.0007L76.856 53.0256L76.856 53.0256L76.5842 54.0007ZM78.7 53.346L77.9619 52.6889L77.9619 52.6889L78.7 53.346ZM78.8998 52.6065L79.8515 52.3009L79.8464 52.2834L79.8407 52.2661L78.8998 52.6065ZM78.4337 52.1657L78.1267 53.1307L78.1338 53.1328L78.1408 53.1349L78.4337 52.1657ZM77.4195 52.1497L77.5338 53.1481L77.5365 53.1477L77.4195 52.1497ZM75.5811 52.4068L75.4668 51.4084L75.4587 51.4096L75.5811 52.4068ZM73.0398 52.1521L72.5761 53.0531L72.58 53.0551L73.0398 52.1521ZM71.7267 50.5048L72.6751 50.1882L72.6715 50.1766L71.7267 50.5048ZM71.7243 48.6067L72.6571 48.9291L72.6586 48.9249L71.7243 48.6067ZM72.9115 46.9898L72.2986 46.211L72.2986 46.211L72.9115 46.9898ZM78.5817 45.5881L78.2644 46.5498L78.2678 46.5509L78.5817 45.5881ZM80.2742 46.5418L77.3918 47.6089L78.0352 49.5011L80.9177 48.434L80.2742 46.5418ZM78.6075 48.0985C78.4331 47.7341 78.1698 47.4369 77.8304 47.2234L76.7599 48.9438C76.788 48.9615 76.8037 48.9785 76.8195 49.0115L78.6075 48.0985ZM77.8413 47.2304C77.5066 47.0136 77.1328 46.9001 76.7443 46.8714L76.5579 48.8819C76.6578 48.8893 76.7134 48.9138 76.749 48.9368L77.8413 47.2304ZM76.7684 46.8735C76.362 46.8334 75.9586 46.8975 75.5719 47.029L76.165 48.9391C76.3394 48.8797 76.4578 48.8723 76.5338 48.8798L76.7684 46.8735ZM75.5719 47.029C75.0792 47.1966 74.6283 47.4604 74.274 47.8533L75.7234 49.1975C75.795 49.1181 75.924 49.021 76.165 48.9391L75.5719 47.029ZM74.2691 47.8587C73.8669 48.311 73.6499 48.9296 73.8683 49.5924L75.7512 48.9155C75.7576 48.9347 75.7647 48.9652 75.7663 49.0045C75.7679 49.0444 75.7634 49.0841 75.7539 49.1204C75.735 49.1935 75.7063 49.2169 75.7283 49.1921L74.2691 47.8587ZM73.8567 49.5547C74.0026 50.0644 74.3534 50.4193 74.7921 50.6111L75.6098 48.757C75.6127 48.7582 75.6461 48.7738 75.6853 48.8169C75.7263 48.862 75.7512 48.9127 75.7628 48.9532L73.8567 49.5547ZM74.8041 50.6163C75.2579 50.8074 75.8011 50.7929 76.2816 50.7333L76.0832 48.7325C75.8977 48.7555 75.7638 48.76 75.6728 48.7555C75.5766 48.7507 75.5638 48.7375 75.5978 48.7518L74.8041 50.6163ZM76.2978 50.7311L78.3276 50.445L78.0969 48.4485L76.0671 48.7346L76.2978 50.7311ZM78.3256 50.4453C79.2872 50.3118 79.9159 50.3953 80.3041 50.57L81.1406 48.7242C80.2863 48.3396 79.2416 48.2896 78.0989 48.4482L78.3256 50.4453ZM80.3081 50.5718C80.6527 50.725 80.9066 50.9939 81.0629 51.4871L82.9528 50.8316C82.6463 49.8649 82.0432 49.1256 81.1366 48.7224L80.3081 50.5718ZM81.0593 51.4753C81.2075 51.9636 81.1899 52.3991 81.0313 52.8201L82.8826 53.5045C83.2105 52.6337 83.2268 51.7338 82.9565 50.8434L81.0593 51.4753ZM81.0294 52.8251C80.8609 53.2796 80.5547 53.7202 80.0635 54.1422L81.3256 55.6694C82.0398 55.0557 82.5751 54.3338 82.8844 53.4995L81.0294 52.8251ZM80.0676 54.1387C79.5785 54.5545 78.95 54.9054 78.1583 55.1747L78.7514 57.0848C79.7379 56.7492 80.6025 56.2842 81.3215 55.6729L80.0676 54.1387ZM78.1583 55.1747C76.8567 55.6175 75.8688 55.6542 75.1278 55.426L74.5145 57.3561C75.7786 57.7454 77.2131 57.608 78.7514 57.0848L78.1583 55.1747ZM75.1334 55.4277C74.3937 55.1949 73.8991 54.751 73.59 54.0574L71.7794 54.9216C72.3198 56.1341 73.2495 56.9579 74.5089 57.3543L75.1334 55.4277ZM73.0047 55.4363L76.1072 54.2943L75.4673 52.4008L72.3648 53.5428L73.0047 55.4363ZM74.9128 53.8426C75.2128 54.4048 75.6867 54.8085 76.3123 54.9757L76.856 53.0256C76.7843 53.0065 76.727 52.9747 76.6618 52.8525L74.9128 53.8426ZM76.3123 54.9757C76.8951 55.1315 77.4977 55.0635 78.0769 54.8665L77.4839 52.9564C77.1655 53.0647 76.9705 53.0562 76.856 53.0256L76.3123 54.9757ZM78.0769 54.8665C78.5922 54.6912 79.0755 54.4209 79.438 54.003L77.9619 52.6889C77.9098 52.749 77.78 52.8557 77.4839 52.9564L78.0769 54.8665ZM79.438 54.003C79.8261 53.5556 80.0419 52.9537 79.8515 52.3009L77.9481 52.912C77.9429 52.8941 77.9376 52.867 77.937 52.8327C77.9365 52.7981 77.9411 52.7645 77.9491 52.7347C77.9653 52.6748 77.987 52.6599 77.9619 52.6889L79.438 54.003ZM79.8407 52.2661C79.6588 51.7178 79.2499 51.3493 78.7266 51.1966L78.1408 53.1349C78.1347 53.1331 78.092 53.1186 78.043 53.0722C77.9926 53.0245 77.9679 52.9739 77.959 52.9468L79.8407 52.2661ZM78.7407 51.2008C78.299 51.0645 77.7906 51.0821 77.3025 51.1517L77.5365 53.1477C77.9258 53.0922 78.0935 53.1204 78.1267 53.1307L78.7407 51.2008ZM77.3052 51.1513L75.4668 51.4084L75.6954 53.4052L77.5338 53.1481L77.3052 51.1513ZM75.4587 51.4096C74.516 51.5494 73.8953 51.4506 73.4995 51.2491L72.58 53.0551C73.4651 53.5058 74.5387 53.5768 75.7035 53.404L75.4587 51.4096ZM73.5034 51.251C73.1182 51.0527 72.8395 50.7287 72.6751 50.1882L70.7783 50.8214C71.081 51.8164 71.6777 52.5906 72.5761 53.0531L73.5034 51.251ZM72.6715 50.1766C72.5171 49.6908 72.5301 49.2883 72.6571 48.9291L70.7914 48.2843C70.4967 49.1179 70.5112 49.9809 70.7819 50.8331L72.6715 50.1766ZM72.6586 48.9249C72.7943 48.5358 73.0616 48.1481 73.5243 47.7687L72.2986 46.211C71.5974 46.7859 71.0733 47.476 70.7899 48.2885L72.6586 48.9249ZM73.5243 47.7687C73.99 47.3869 74.6147 47.0476 75.4275 46.7711L74.8344 44.8611C73.8518 45.1953 72.9968 45.6385 72.2986 46.211L73.5243 47.7687ZM75.4275 46.7711C76.652 46.3546 77.5748 46.3286 78.2644 46.5498L78.8991 44.6265C77.6808 44.2356 76.3031 44.3615 74.8344 44.8611L75.4275 46.7711ZM78.2678 46.5509C78.9362 46.7626 79.3923 47.184 79.6771 47.8881L81.5148 47.0877C81.0192 45.8623 80.1324 45.0171 78.8956 44.6254L78.2678 46.5509Z" fill="#113E4E"/>
<rect width="50" height="39" transform="translate(20)" fill="#91BFD0"/>
<path d="M36.4992 2H57.5808L42.0816 24.9729H21L36.4992 2Z" fill="white"/>
<path d="M37.4224 27.102L31.4192 36H53.5008L69 13.0271H52.7024L43.2064 27.102H37.4224Z" fill="#113E4E"/>
</g>
<defs>
<filter id="filter0_d_124_505" x="0.867126" y="0" width="86.1972" height="69.4713" filterUnits="userSpaceOnUse" color-interpolation-filters="sRGB">
<feFlood flood-opacity="0" result="BackgroundImageFix"/>
<feColorMatrix in="SourceAlpha" type="matrix" values="0 0 0 0 0 0 0 0 0 0 0 0 0 0 0 0 0 0 127 0" result="hardAlpha"/>
<feOffset dy="4"/>
<feGaussianBlur stdDeviation="2"/>
<feComposite in2="hardAlpha" operator="out"/>
<feColorMatrix type="matrix" values="0 0 0 0 0 0 0 0 0 0 0 0 0 0 0 0 0 0 0.25 0"/>
<feBlend mode="normal" in2="BackgroundImageFix" result="effect1_dropShadow_124_505"/>
<feBlend mode="normal" in="SourceGraphic" in2="effect1_dropShadow_124_505" result="shape"/>
</filter>
</defs>
</svg>
